<?xml version="1.0" encoding="UTF-8" standalone="no"?>
<svg
   fill="#000000"
   viewBox="0 0 33 88.005974"
   width="33"
   height="44.002987"
   version="1.1"
   id="svg9438"
   sodipodi:docname="logo.svg"
   inkscape:version="1.1.1 (c3084ef, 2021-09-22)"
   xmlns:inkscape="http://www.inkscape.org/namespaces/inkscape"
   xmlns:sodipodi="http://sodipodi.sourceforge.net/DTD/sodipodi-0.dtd"
   xmlns="http://www.w3.org/2000/svg"
   xmlns:svg="http://www.w3.org/2000/svg">
  <defs
     id="defs9442" />
  <sodipodi:namedview
     id="namedview9440"
     pagecolor="#ffffff"
     bordercolor="#666666"
     borderopacity="1.0"
     inkscape:pageshadow="2"
     inkscape:pageopacity="0.0"
     inkscape:pagecheckerboard="0"
     showgrid="false"
     fit-margin-top="0"
     fit-margin-left="0"
     fit-margin-right="0"
     fit-margin-bottom="0"
     inkscape:zoom="3.2904266"
     inkscape:cx="8.0536671"
     inkscape:cy="-10.484963"
     inkscape:window-width="1296"
     inkscape:window-height="847"
     inkscape:window-x="0"
     inkscape:window-y="25"
     inkscape:window-maximized="0"
     inkscape:current-layer="svg9438" />
  <path
     d="M 5.5625,1.1202158e-4 C 5.434025,-0.00134798 5.299791,0.01141702 5.158203,0.04112802 4.520571,0.17546502 4.180197,0.58634452 3.902344,0.99815932 3.624491,1.4099741 3.407119,1.8942003 3.214844,2.4493312 2.830294,3.5595928 2.562836,4.9555183 2.484375,6.4395656 2.337114,9.2249288 2.868518,12.392647 5.076172,14.150503 l 0.166016,0.84375 c -3.725159,1.430433 -6.2589849,4.188908 -8.029297,7.525391 -0.413083,0.77853 -0.787299,1.590285 -1.138672,2.419922 l -8.96875,-1.921875 a 0.50005,0.50005 0 0 0 -0.09961,-0.01367 0.50005,0.50005 0 0 0 -0.111328,0.990234 l 8.796875,1.884766 c -0.305714,0.776409 -0.594909,1.563698 -0.867187,2.365234 l -9.8125,-0.238283 a 0.50005,0.50005 0 0 0 -0.04883,0 0.50016114,0.50016114 0 0 0 0.02539,1 l 9.517578,0.230469 c -0.271794,0.83736 -0.53927,1.676214 -0.794921,2.521484 l -8.78125,1.253906 a 0.50005,0.50005 0 1 0 0.140624,0.988282 l 8.322266,-1.189453 c -0.144154,0.480863 -0.28909,0.963368 -0.433594,1.441406 C -11.025521,38.379803 -16.5,47.904582 -16.5,64.687613 c 0,2.360307 0.833598,4.011053 2.046875,4.964843 1.016275,0.798922 2.170538,1.073671 3.224609,1.230469 3.308032,11.350191 10.1054691,16.90625 10.1054691,16.90625 a 1.0001,1.0001 0 0 0 0.62304695,0.216797 H 16.5 h 17 a 1.0001,1.0001 0 0 0 0.623047,-0.216797 c 0,0 6.797437,-5.556059 10.105469,-16.90625 1.054071,-0.156798 2.208334,-0.431547 3.224609,-1.230469 C 48.666402,68.698666 49.5,67.04792 49.5,64.687613 49.5,47.904582 44.025521,38.379803 40.041016,34.252066 39.896512,33.774028 39.751576,33.291523 39.607422,32.81066 l 8.322266,1.189453 a 0.50005,0.50005 0 1 0 0.140624,-0.988282 l -8.78125,-1.253906 c -0.255651,-0.84527 -0.523127,-1.684124 -0.794921,-2.521484 l 9.517578,-0.230469 a 0.50013734,0.50013734 0 0 0 -0.02344,-1 l -9.8125,0.238281 c -0.272278,-0.801536 -0.561473,-1.588825 -0.867187,-2.365234 l 8.796875,-1.884766 a 0.50005,0.50005 0 0 0 -0.07617,-0.990234 0.50005,0.50005 0 0 0 -0.134766,0.01367 l -8.96875,1.921875 c -0.351373,-0.829637 -0.725589,-1.641392 -1.138672,-2.419922 -1.770312,-3.336483 -4.304138,-6.094958 -8.029297,-7.525391 l 0.166016,-0.84375 c 2.207688,-1.757904 2.739058,-4.9254606 2.591797,-7.7109358 -0.07846,-1.4841065 -0.34591,-2.8799977 -0.730469,-3.9902344 -0.192279,-0.5551184 -0.4096,-1.039381 -0.6875,-1.45117188 -0.277899,-0.4117909 -0.617981,-0.8230169 -1.255859,-0.9570313 -0.566436,-0.1191964 -1.015528,0.041251 -1.445313,0.2441407 C 25.9667,0.48815792 25.545968,0.77477842 25.113281,1.1329245 24.247909,1.8492167 23.347004,2.856041 22.5625,4.0645652 21.06861,6.3658937 20.025958,9.4658867 20.945312,12.509878 l -0.265624,0.691406 C 19.161901,13.064213 17.689984,13.005972 16.5,13.005972 c -1.189984,0 -2.661901,0.05824 -4.179688,0.195312 L 12.054688,12.509878 C 12.974035,9.4659197 11.93139,6.3657664 10.4375,4.0645652 9.6529959,2.8561078 8.75205,1.8492352 7.886719,1.1329245 7.454053,0.77476922 7.033221,0.48821162 6.603516,0.28526832 6.281236,0.13306082 5.947925,0.00449952 5.5625,1.1202158e-4 Z M 5.61914,2.0508933 c 0.04057,0.011282 0.06715,0.013802 0.128906,0.042969 0.215033,0.1015567 0.525369,0.3003584 0.863281,0.5800782 0.675825,0.5594393 1.471317,1.435473 2.148438,2.4785156 1.354241,2.0860856 2.202432,4.7658176 1.328125,7.1210939 a 1.0001,1.0001 0 0 0 0.0039,0.707031 l 0.619141,1.609375 a 1.0001,1.0001 0 0 0 1.05664,0.632813 c 1.718912,-0.212944 3.317841,-0.216797 4.732429,-0.216797 1.414588,0 3.013523,0.0039 4.732422,0.216797 a 1.0001,1.0001 0 0 0 1.05664,-0.632813 l 0.619141,-1.609375 a 1.0001,1.0001 0 0 0 0.0039,-0.707031 c -0.8743,-2.3552573 -0.02612,-5.0348926 1.328125,-7.1210942 0.677121,-1.0431009 1.472654,-1.9191516 2.148438,-2.4785156 0.337892,-0.2796821 0.646375,-0.4786045 0.861328,-0.5800782 0.06258,-0.029541 0.08984,-0.031725 0.130859,-0.042969 0.02229,0.023317 0.02934,0.023065 0.05859,0.066406 0.131569,0.1949591 0.304061,0.5446965 0.457031,0.9863281 0.305941,0.8832634 0.552055,2.1355127 0.621094,3.4414063 0.138078,2.6117875 -0.495946,5.3025316 -2.060547,6.3007816 a 1.0001,1.0001 0 0 0 -0.443359,0.648437 l -0.373047,1.892578 a 1.0001,1.0001 0 0 0 0.6875,1.148438 c 3.64851,1.123544 5.933735,3.605535 7.693359,6.921875 0.323047,0.608841 0.619707,1.252156 0.90625,1.910156 l -3.033203,0.650391 a 0.50005,0.50005 0 1 0 0.210938,0.976562 l 3.21875,-0.689453 c 0.259863,0.646482 0.506217,1.312489 0.74414,1.990234 l -2.638671,0.06445 a 0.50013734,0.50013734 0 0 0 0.02344,1 l 2.953125,-0.07227 c 0.236269,0.708498 0.466529,1.428813 0.691406,2.15625 l -3.027337,-0.431632 a 0.50005,0.50005 0 0 0 -0.09961,-0.0059 0.50005,0.50005 0 0 0 -0.04102,0.994141 l 3.49414,0.5 c 0.251181,0.828519 0.501307,1.660511 0.753906,2.49414 a 1.0001,1.0001 0 0 0 0.248047,0.414063 c 3.532495,3.551325 9.074224,12.67623 9.074224,29.279338 0,1.929693 -0.551777,2.819118 -1.28125,3.392578 -0.729473,0.573459 -1.784127,0.819909 -2.826172,0.93164 A 1.0001,1.0001 0 0 0 42.535156,69.7423 C 39.630489,80.391516 33.767042,85.463235 33.113281,86.005972 H 16.5 -0.11328097 C -0.76704195,85.463235 -6.630489,80.391516 -9.535156,69.7423 a 1.0001,1.0001 0 0 0 -0.857422,-0.730469 C -11.434623,68.9001 -12.489277,68.65365 -13.21875,68.080191 -13.948223,67.506731 -14.5,66.617306 -14.5,64.687613 -14.5,48.084505 -8.9583,38.9596 -5.425781,35.408316 a 1.0001,1.0001 0 0 0 0.248047,-0.414063 c 0.252599,-0.833629 0.502725,-1.665621 0.753906,-2.49414 l 3.49414005,-0.5 a 0.50005,0.50005 0 0 0 -0.05664,-0.996094 0.50005,0.50005 0 0 0 -0.08398,0.0078 l -3.0273481,0.431653 c 0.224877,-0.727437 0.455137,-1.447752 0.691406,-2.15625 l 2.95312505,0.07227 a 0.50013734,0.50013734 0 0 0 0.02344,-1 L -3.068356,28.295042 c 0.237923,-0.677745 0.484277,-1.343752 0.74414,-1.990234 l 3.21875003,0.689453 A 0.50005,0.50005 0 1 0 1.105472,26.017699 l -3.0332029,-0.650391 c 0.286543,-0.658 0.583203,-1.301315 0.90625,-1.910156 1.75962393,-3.31634 4.0448489,-5.798331 7.6933589,-6.921875 a 1.0001,1.0001 0 0 0 0.6875,-1.148438 L 6.986331,13.494261 A 1.0001,1.0001 0 0 0 6.542972,12.845824 C 4.978324,11.847544 4.344347,9.1566974 4.482425,6.5450419 4.551465,5.239214 4.797568,3.9869678 5.103519,3.1036356 5.256494,2.6619697 5.428934,2.3123795 5.56055,2.1173075 5.5896,2.0742565 5.59696,2.0741885 5.61914,2.0509015 Z M 6.5,19.005972 c -1.291666,0 -2.323077,0.502378 -2.998047,1.261719 C 2.826984,21.027032 2.5,22.019861 2.5,23.005972 c 0,0.986111 0.326984,1.97894 1.001953,2.738281 0.67497,0.759341 1.706381,1.261719 2.998047,1.261719 1.291666,0 2.323077,-0.502378 2.9980469,-1.261719 C 10.173016,24.984912 10.5,23.992083 10.5,23.005972 10.5,22.019861 10.173016,21.027032 9.4980469,20.267691 8.823077,19.50835 7.791666,19.005972 6.5,19.005972 Z m 20,0 c -1.291666,0 -2.323077,0.502378 -2.998047,1.261719 C 22.826984,21.027032 22.5,22.019861 22.5,23.005972 c 0,0.986111 0.326984,1.97894 1.001953,2.738281 0.67497,0.759341 1.706381,1.261719 2.998047,1.261719 1.291666,0 2.323077,-0.502378 2.998047,-1.261719 C 30.173016,24.984912 30.5,23.992083 30.5,23.005972 30.5,22.019861 30.173016,21.027032 29.498047,20.267691 28.823077,19.50835 27.791666,19.005972 26.5,19.005972 Z m -20,1 c 1.041666,0 1.760256,0.372622 2.251953,0.925781 0.4916969,0.553159 0.7480469,1.31033 0.7480469,2.074219 0,0.763889 -0.25635,1.52106 -0.7480469,2.074219 C 8.260256,25.63335 7.541666,26.005972 6.5,26.005972 5.458334,26.005972 4.739744,25.63335 4.248047,25.080191 3.75635,24.527032 3.5,23.769861 3.5,23.005972 3.5,22.242083 3.75635,21.484912 4.248047,20.931753 4.739744,20.378594 5.458334,20.005972 6.5,20.005972 Z m 20,0 c 1.041666,0 1.760256,0.372622 2.251953,0.925781 0.491697,0.553159 0.748047,1.31033 0.748047,2.074219 0,0.763889 -0.25635,1.52106 -0.748047,2.074219 -0.491697,0.553159 -1.210287,0.925781 -2.251953,0.925781 -1.041666,0 -1.760256,-0.372622 -2.251953,-0.925781 C 23.75635,24.527032 23.5,23.769861 23.5,23.005972 c 0,-0.763889 0.25635,-1.52106 0.748047,-2.074219 0.491697,-0.553159 1.210287,-0.925781 2.251953,-0.925781 z m -20,1.5 a 1.5,1.5 0 0 0 0,3 1.5,1.5 0 0 0 0,-3 z m 20,0 a 1.5,1.5 0 0 0 0,3 1.5,1.5 0 0 0 0,-3 z m -10,1.5 c -1.657,0 -3,0.517297 -3,1.154297 0,0.637 1.343,1.845703 3,1.845703 1.657,0 3,-1.208703 3,-1.845703 0,-0.637 -1.343,-1.154297 -3,-1.154297 z m 0,10 c -7.862011,0 -14.136488,2.654359 -18.4238279,7.123047 C -6.211168,44.597707 -8.5,50.857961 -8.5,58.005972 c 0,14.342627 11.187745,26 25,26 13.812255,0 25,-11.657373 25,-26 0,-7.148011 -2.288832,-13.408265 -6.576172,-17.876953 C 30.636488,35.660331 24.362011,33.005972 16.5,33.005972 Z m 0,1 c 7.637989,0 13.613512,2.553891 17.701172,6.814453 C 38.288832,45.080987 40.5,51.070983 40.5,58.005972 c 0,13.823373 -10.750255,25 -24,25 -13.249745,0 -24,-11.176627 -24,-25 0,-6.934989 2.211168,-12.924985 6.2988281,-17.185547 C 2.886488,36.559863 8.8620109,34.005972 16.5,34.005972 Z m 0,4.117188 c -2.079,0 -3.765625,2.546578 -3.765625,3.517578 0,0.971 1.686625,-1.230469 3.765625,-1.230469 2.079,0 3.765625,2.201469 3.765625,1.230469 0,-0.971 -1.686625,-3.517578 -3.765625,-3.517578 z M 6.019531,40.058706 c -0.236527,-0.0061 -0.480797,0.02069 -0.732422,0.08594 -2.013,0.522 -3.690687,3.554547 -3.429687,4.560547 0.261,1.006 1.483094,-1.528782 3.496094,-2.050781 2.013,-0.522 4.0539679,0.957171 3.7929679,-0.04883 C 8.9181089,41.725332 7.675223,40.101364 6.019531,40.058706 Z m 20.960938,0 c -1.655692,0.04266 -2.898578,1.666625 -3.126953,2.546875 -0.261,1.006 1.779968,-0.473171 3.792968,0.04883 2.013,0.521999 3.235094,3.056781 3.496094,2.050781 0.261,-1.006 -1.416687,-4.038547 -3.429687,-4.560547 -0.251625,-0.06525 -0.495895,-0.09203 -0.732422,-0.08594 z m -15.685547,5.966797 c -2.0480001,0.148 -3.526031,2.775422 -3.457031,3.732422 0.069,0.956 1.5711399,-1.332469 3.61914,-1.480469 2.047,-0.148 3.863922,1.90036 3.794922,0.94336 -0.069,-0.957 -1.910031,-3.344313 -3.957031,-3.195313 z m 10.410156,0 c -2.047,-0.149 -3.888031,2.238313 -3.957031,3.195313 -0.069,0.957 1.747922,-1.09136 3.794922,-0.94336 2.048,0.148 3.55014,2.436469 3.61914,1.480469 0.069,-0.957 -1.409031,-3.584422 -3.457031,-3.732422 z M 1.447266,48.189566 c -0.251172,0.0059 -0.50192197,0.04553 -0.74804697,0.128906 -1.96899993,0.667 -3.20943803,3.568281 -2.89843803,4.488281 0.3110001,0.92 1.32982805,-1.602531 3.298828,-2.269531 1.969,-0.667 4.463344,1.005938 4.152344,0.08594 -0.272125,-0.805 -2.046484,-2.475088 -3.804687,-2.433594 z m 30.105468,0 c -1.758203,-0.04149 -3.532562,1.628594 -3.804687,2.433594 -0.311,0.92 2.183344,-0.752938 4.152344,-0.08594 1.969,0.667 2.987828,3.189531 3.298828,2.269531 0.311,-0.92 -0.929438,-3.821281 -2.898438,-4.488281 -0.246125,-0.08337 -0.496875,-0.122979 -0.748047,-0.128906 z"
     id="path9436" />
</svg>
