<?xml version="1.0" encoding="UTF-8" standalone="no"?>
<!-- Created with Inkscape (http://www.inkscape.org/) -->

<svg
   width="62.868824mm"
   height="23.284914mm"
   viewBox="0 0 62.868824 23.284914"
   version="1.1"
   id="svg5"
   inkscape:version="1.1.1 (c3084ef, 2021-09-22)"
   sodipodi:docname="logotext.svg"
   xmlns:inkscape="http://www.inkscape.org/namespaces/inkscape"
   xmlns:sodipodi="http://sodipodi.sourceforge.net/DTD/sodipodi-0.dtd"
   xmlns="http://www.w3.org/2000/svg"
   xmlns:svg="http://www.w3.org/2000/svg">
  <sodipodi:namedview
     id="namedview7"
     pagecolor="#ffffff"
     bordercolor="#666666"
     borderopacity="1.0"
     inkscape:pageshadow="2"
     inkscape:pageopacity="0.0"
     inkscape:pagecheckerboard="0"
     inkscape:document-units="mm"
     showgrid="false"
     inkscape:zoom="0.40775506"
     inkscape:cx="145.92094"
     inkscape:cy="604.52959"
     inkscape:window-width="1312"
     inkscape:window-height="847"
     inkscape:window-x="0"
     inkscape:window-y="25"
     inkscape:window-maximized="0"
     inkscape:current-layer="layer1"
     fit-margin-top="0"
     fit-margin-left="0"
     fit-margin-right="0"
     fit-margin-bottom="0" />
  <defs
     id="defs2">
    <rect
       x="208.33965"
       y="407.69916"
       width="70.045227"
       height="192.17537"
       id="rect3713" />
    <rect
       x="-37.71666"
       y="217.31981"
       width="296.34521"
       height="303.52933"
       id="rect1023" />
  </defs>
  <g
     inkscape:label="Layer 1"
     inkscape:groupmode="layer"
     id="layer1"
     transform="translate(-6.242965,-10.065814)">
    <text
       xml:space="preserve"
       transform="scale(0.26458333)"
       id="text1021"
       style="font-style:normal;font-weight:normal;font-size:40px;line-height:1.25;font-family:sans-serif;white-space:pre;shape-inside:url(#rect1023);fill:#000000;fill-opacity:1;stroke:none" />
    <text
       xml:space="preserve"
       transform="scale(0.26458333)"
       id="text3711"
       style="font-style:normal;font-weight:normal;font-size:40px;line-height:1.25;font-family:sans-serif;white-space:pre;shape-inside:url(#rect3713);fill:#000000;fill-opacity:1;stroke:none" />
    <text
       xml:space="preserve"
       style="font-style:normal;font-variant:normal;font-weight:normal;font-stretch:normal;font-size:10.5833px;line-height:1.25;font-family:Mali;-inkscape-font-specification:'Mali, Normal';font-variant-ligatures:normal;font-variant-caps:normal;font-variant-numeric:normal;font-variant-east-asian:normal;fill:#000000;fill-opacity:1;stroke:none;stroke-width:0.264583"
       x="69.854401"
       y="138.28319"
       id="text3961"><tspan
         sodipodi:role="line"
         id="tspan6311"
         x="69.854401"
         y="138.28319"></tspan></text>
    <text
       xml:space="preserve"
       style="font-style:normal;font-variant:normal;font-weight:300;font-stretch:normal;font-size:10.5833px;line-height:1.25;font-family:Mali;-inkscape-font-specification:'Mali, Light';font-variant-ligatures:normal;font-variant-caps:normal;font-variant-numeric:normal;font-variant-east-asian:normal;fill:#000000;fill-opacity:1;stroke:none;stroke-width:0.264583"
       x="27.329418"
       y="25.985083"
       id="text6711"><tspan
         sodipodi:role="line"
         id="tspan6709"
         style="font-style:normal;font-variant:normal;font-weight:300;font-stretch:normal;font-size:10.5833px;font-family:Mali;-inkscape-font-specification:'Mali, Light';font-variant-ligatures:normal;font-variant-caps:normal;font-variant-numeric:normal;font-variant-east-asian:normal;stroke-width:0.264583"
         x="27.329418"
         y="25.985083">myGhibli</tspan></text>
    <g
       style="fill:#000000"
       id="g8462"
       transform="matrix(0.26458333,0,0,0.26458333,1.7450484,9.2736437)">
      <path
         d="m 39.0625,2.9941406 c -0.128475,-0.00146 -0.262709,0.011305 -0.404297,0.041016 -0.637632,0.134337 -0.978006,0.5452165 -1.255859,0.9570313 -0.277853,0.4118148 -0.495225,0.896041 -0.6875,1.4511719 -0.38455,1.1102616 -0.652008,2.5061871 -0.730469,3.9902344 -0.147261,2.7853628 0.384143,5.9530808 2.591797,7.7109368 l 0.166016,0.84375 c -3.725159,1.430433 -6.258985,4.188908 -8.029297,7.525391 -0.413083,0.77853 -0.787299,1.590285 -1.138672,2.419922 l -8.96875,-1.921875 a 0.50005,0.50005 0 0 0 -0.09961,-0.01367 0.50005,0.50005 0 0 0 -0.111328,0.990234 l 8.796875,1.884766 c -0.305714,0.776409 -0.594909,1.563698 -0.867187,2.365234 L 18.511719,31 a 0.50005,0.50005 0 0 0 -0.04883,0 0.50016114,0.50016114 0 0 0 0.02539,1 l 9.517578,0.230469 c -0.271794,0.83736 -0.53927,1.676214 -0.794921,2.521484 l -8.78125,1.253906 a 0.50005,0.50005 0 1 0 0.140624,0.988282 l 8.322266,-1.189453 c -0.144154,0.480863 -0.28909,0.963368 -0.433594,1.441406 C 22.474479,41.373831 17,50.89861 17,67.681641 c 0,2.360307 0.833598,4.011053 2.046875,4.964843 1.016275,0.798922 2.170538,1.073671 3.224609,1.230469 3.308032,11.350191 10.105469,16.90625 10.105469,16.90625 A 1.0001,1.0001 0 0 0 33,91 h 17 17 a 1.0001,1.0001 0 0 0 0.623047,-0.216797 c 0,0 6.797437,-5.556059 10.105469,-16.90625 1.054071,-0.156798 2.208334,-0.431547 3.224609,-1.230469 C 82.166402,71.692694 83,70.041948 83,67.681641 83,50.89861 77.525521,41.373831 73.541016,37.246094 73.396512,36.768056 73.251576,36.285551 73.107422,35.804688 l 8.322266,1.189453 a 0.50005,0.50005 0 1 0 0.140624,-0.988282 l -8.78125,-1.253906 c -0.255651,-0.84527 -0.523127,-1.684124 -0.794921,-2.521484 L 81.511719,32 a 0.50013734,0.50013734 0 0 0 -0.02344,-1 l -9.8125,0.238281 c -0.272278,-0.801536 -0.561473,-1.588825 -0.867187,-2.365234 l 8.796875,-1.884766 a 0.50005,0.50005 0 0 0 -0.07617,-0.990234 0.50005,0.50005 0 0 0 -0.134766,0.01367 l -8.96875,1.921875 C 70.074408,27.103955 69.700192,26.2922 69.287109,25.51367 67.516797,22.177187 64.982971,19.418712 61.257812,17.988279 l 0.166016,-0.84375 c 2.207688,-1.757904 2.739058,-4.92546 2.591797,-7.7109352 C 63.937164,7.9494873 63.669715,6.5535961 63.285156,5.4433594 63.092877,4.888241 62.875556,4.4039784 62.597656,3.9921875 62.319757,3.5803966 61.979675,3.1691706 61.341797,3.0351562 60.775361,2.9159598 60.326269,3.0764072 59.896484,3.2792969 59.4667,3.4821865 59.045968,3.768807 58.613281,4.1269531 57.747909,4.8432453 56.847004,5.8500696 56.0625,7.0585938 54.56861,9.3599223 53.525958,12.459915 54.445312,15.503906 l -0.265624,0.691406 C 52.661901,16.058241 51.189984,16 50,16 c -1.189984,0 -2.661901,0.05824 -4.179688,0.195312 L 45.554688,15.503906 C 46.474035,12.459948 45.43139,9.359795 43.9375,7.0585938 43.152996,5.8501364 42.25205,4.8432638 41.386719,4.1269531 40.954053,3.7687978 40.533221,3.4822402 40.103516,3.2792969 39.781236,3.1270894 39.447925,2.9985281 39.0625,2.9941406 Z m 0.05664,2.0507813 c 0.04057,0.011282 0.06715,0.013802 0.128906,0.042969 0.215033,0.1015567 0.525369,0.3003584 0.863281,0.5800782 0.675825,0.5594393 1.471317,1.435473 2.148438,2.4785156 1.354241,2.0860853 2.202432,4.7658173 1.328125,7.1210933 a 1.0001,1.0001 0 0 0 0.0039,0.707031 l 0.619141,1.609375 a 1.0001,1.0001 0 0 0 1.05664,0.632813 C 46.986483,18.003853 48.585412,18 50,18 c 1.414588,0 3.013523,0.0039 4.732422,0.216797 a 1.0001,1.0001 0 0 0 1.05664,-0.632813 l 0.619141,-1.609375 a 1.0001,1.0001 0 0 0 0.0039,-0.707031 c -0.8743,-2.355257 -0.02612,-5.034892 1.328125,-7.1210936 0.677121,-1.0431009 1.472654,-1.9191516 2.148438,-2.4785156 0.337892,-0.2796821 0.646375,-0.4786045 0.861328,-0.5800782 0.06258,-0.029541 0.08984,-0.031725 0.130859,-0.042969 0.02229,0.023317 0.02934,0.023065 0.05859,0.066406 0.131569,0.1949591 0.304061,0.5446965 0.457031,0.9863281 0.305941,0.8832634 0.552055,2.1355127 0.621094,3.4414063 0.138078,2.611788 -0.495946,5.302531 -2.060547,6.300782 a 1.0001,1.0001 0 0 0 -0.443359,0.648437 l -0.373047,1.892578 a 1.0001,1.0001 0 0 0 0.6875,1.148437 c 3.64851,1.123544 5.933735,3.605535 7.693359,6.921875 0.323047,0.608841 0.619707,1.252156 0.90625,1.910157 l -3.033203,0.65039 a 0.50005,0.50005 0 1 0 0.210938,0.976563 l 3.21875,-0.689453 c 0.259863,0.646481 0.506217,1.312488 0.74414,1.990234 l -2.638671,0.06445 a 0.50013734,0.50013734 0 0 0 0.02344,1 l 2.953125,-0.07227 c 0.236269,0.708498 0.466529,1.428813 0.691406,2.15625 L 67.570312,34.005859 A 0.50005,0.50005 0 0 0 67.470703,34 a 0.50005,0.50005 0 0 0 -0.04102,0.994141 l 3.49414,0.5 c 0.251181,0.828519 0.501307,1.660511 0.753906,2.49414 a 1.0001,1.0001 0 0 0 0.248047,0.414063 C 75.458271,41.953628 81,51.078533 81,67.681641 c 0,1.929693 -0.551777,2.819118 -1.28125,3.392578 -0.729473,0.573459 -1.784127,0.819909 -2.826172,0.93164 a 1.0001,1.0001 0 0 0 -0.857422,0.730469 C 73.130489,83.385544 67.267042,88.457263 66.613281,89 H 50 33.386719 C 32.732958,88.457263 26.869511,83.385544 23.964844,72.736328 A 1.0001,1.0001 0 0 0 23.107422,72.005859 C 22.065377,71.894128 21.010723,71.647678 20.28125,71.074219 19.551777,70.500759 19,69.611334 19,67.681641 19,51.078533 24.5417,41.953628 28.074219,38.402344 a 1.0001,1.0001 0 0 0 0.248047,-0.414063 c 0.252599,-0.833629 0.502725,-1.665621 0.753906,-2.49414 l 3.49414,-0.5 a 0.50005,0.50005 0 0 0 -0.05664,-0.996094 0.50005,0.50005 0 0 0 -0.08398,0.0078 L 29.402344,34.4375 c 0.224877,-0.727437 0.455137,-1.447752 0.691406,-2.15625 l 2.953125,0.07227 a 0.50013734,0.50013734 0 0 0 0.02344,-1 l -2.638671,-0.06445 c 0.237923,-0.677745 0.484277,-1.343752 0.74414,-1.990234 l 3.21875,0.689453 a 0.50005,0.50005 0 1 0 0.210938,-0.976562 l -3.033203,-0.650391 c 0.286543,-0.658 0.583203,-1.301315 0.90625,-1.910156 1.759624,-3.31634 4.044849,-5.798331 7.693359,-6.921875 a 1.0001,1.0001 0 0 0 0.6875,-1.148438 l -0.373047,-1.892578 a 1.0001,1.0001 0 0 0 -0.443359,-0.648437 c -1.564648,-0.99828 -2.198625,-3.689126 -2.060547,-6.3007815 0.06904,-1.3058279 0.315143,-2.5580741 0.621094,-3.4414063 0.152975,-0.4416659 0.325415,-0.7912561 0.457031,-0.9863281 0.02905,-0.043051 0.03641,-0.043119 0.05859,-0.066406 z M 40,22 c -1.291666,0 -2.323077,0.502378 -2.998047,1.261719 C 36.326984,24.02106 36,25.013889 36,26 c 0,0.986111 0.326984,1.97894 1.001953,2.738281 C 37.676923,29.497622 38.708334,30 40,30 41.291666,30 42.323077,29.497622 42.998047,28.738281 43.673016,27.97894 44,26.986111 44,26 44,25.013889 43.673016,24.02106 42.998047,23.261719 42.323077,22.502378 41.291666,22 40,22 Z m 20,0 c -1.291666,0 -2.323077,0.502378 -2.998047,1.261719 C 56.326984,24.02106 56,25.013889 56,26 c 0,0.986111 0.326984,1.97894 1.001953,2.738281 C 57.676923,29.497622 58.708334,30 60,30 61.291666,30 62.323077,29.497622 62.998047,28.738281 63.673016,27.97894 64,26.986111 64,26 64,25.013889 63.673016,24.02106 62.998047,23.261719 62.323077,22.502378 61.291666,22 60,22 Z m -20,1 c 1.041666,0 1.760256,0.372622 2.251953,0.925781 C 42.74365,24.47894 43,25.236111 43,26 43,26.763889 42.74365,27.52106 42.251953,28.074219 41.760256,28.627378 41.041666,29 40,29 38.958334,29 38.239744,28.627378 37.748047,28.074219 37.25635,27.52106 37,26.763889 37,26 37,25.236111 37.25635,24.47894 37.748047,23.925781 38.239744,23.372622 38.958334,23 40,23 Z m 20,0 c 1.041666,0 1.760256,0.372622 2.251953,0.925781 C 62.74365,24.47894 63,25.236111 63,26 63,26.763889 62.74365,27.52106 62.251953,28.074219 61.760256,28.627378 61.041666,29 60,29 58.958334,29 58.239744,28.627378 57.748047,28.074219 57.25635,27.52106 57,26.763889 57,26 57,25.236111 57.25635,24.47894 57.748047,23.925781 58.239744,23.372622 58.958334,23 60,23 Z m -20,1.5 a 1.5,1.5 0 0 0 0,3 1.5,1.5 0 0 0 0,-3 z m 20,0 a 1.5,1.5 0 0 0 0,3 1.5,1.5 0 0 0 0,-3 z M 50,26 c -1.657,0 -3,0.517297 -3,1.154297 C 47,27.791297 48.343,29 50,29 51.657,29 53,27.791297 53,27.154297 53,26.517297 51.657,26 50,26 Z m 0,10 C 42.137989,36 35.863512,38.654359 31.576172,43.123047 27.288832,47.591735 25,53.851989 25,61 25,75.342627 36.187745,87 50,87 63.812255,87 75,75.342627 75,61 75,53.851989 72.711168,47.591735 68.423828,43.123047 64.136488,38.654359 57.862011,36 50,36 Z m 0,1 c 7.637989,0 13.613512,2.553891 17.701172,6.814453 C 71.788832,48.075015 74,54.065011 74,61 74,74.823373 63.249745,86 50,86 36.750255,86 26,74.823373 26,61 26,54.065011 28.211168,48.075015 32.298828,43.814453 36.386488,39.553891 42.362011,37 50,37 Z m 0,4.117188 c -2.079,0 -3.765625,2.546578 -3.765625,3.517578 0,0.971 1.686625,-1.230469 3.765625,-1.230469 2.079,0 3.765625,2.201469 3.765625,1.230469 0,-0.971 -1.686625,-3.517578 -3.765625,-3.517578 z m -10.480469,1.935546 c -0.236527,-0.0061 -0.480797,0.02069 -0.732422,0.08594 -2.013,0.522 -3.690687,3.554547 -3.429687,4.560547 0.261,1.006 1.483094,-1.528782 3.496094,-2.050781 2.013,-0.522 4.053968,0.957171 3.792968,-0.04883 -0.228375,-0.88025 -1.471261,-2.504218 -3.126953,-2.546876 z m 20.960938,0 c -1.655692,0.04266 -2.898578,1.666625 -3.126953,2.546875 -0.261,1.006 1.779968,-0.473171 3.792968,0.04883 2.013,0.521999 3.235094,3.056781 3.496094,2.050781 0.261,-1.006 -1.416687,-4.038547 -3.429687,-4.560547 -0.251625,-0.06525 -0.495895,-0.09203 -0.732422,-0.08594 z m -15.685547,5.966797 c -2.048,0.148 -3.526031,2.775422 -3.457031,3.732422 0.069,0.956 1.57114,-1.332469 3.61914,-1.480469 2.047,-0.148 3.863922,1.90036 3.794922,0.94336 -0.069,-0.957 -1.910031,-3.344313 -3.957031,-3.195313 z m 10.410156,0 c -2.047,-0.149 -3.888031,2.238313 -3.957031,3.195313 -0.069,0.957 1.747922,-1.09136 3.794922,-0.94336 2.048,0.148 3.55014,2.436469 3.61914,1.480469 0.069,-0.957 -1.409031,-3.584422 -3.457031,-3.732422 z m -20.257812,2.164063 c -0.251172,0.0059 -0.501922,0.04553 -0.748047,0.128906 -1.969,0.667 -3.209438,3.568281 -2.898438,4.488281 0.311,0.92 1.329828,-1.602531 3.298828,-2.269531 1.969,-0.667 4.463344,1.005938 4.152344,0.08594 -0.272125,-0.805 -2.046484,-2.475088 -3.804687,-2.433594 z m 30.105468,0 c -1.758203,-0.04149 -3.532562,1.628594 -3.804687,2.433594 -0.311,0.92 2.183344,-0.752938 4.152344,-0.08594 1.969,0.667 2.987828,3.189531 3.298828,2.269531 0.311,-0.92 -0.929438,-3.821281 -2.898438,-4.488281 -0.246125,-0.08337 -0.496875,-0.122979 -0.748047,-0.128906 z"
         id="path8453" />
    </g>
  </g>
</svg>
